PathFileType	4	(X/Y/Z)	Patient4_TMGait_0pt6_01_right_48.trc.trc
DataRate	CameraRate	NumFrames	NumMarkers	Units	OrigDataRate	OrigDataStartFrame	OrigNumFrames
79.545454545454	79.545454545454	6	33	mm	79.545454545454	1	       141
Frame#	Time	Sacral			L.Shoulder			Chest			R.Shoulder			Neck			R.ASIS			L.ASIS			R.Thigh.Superior			R.Thigh.Lateral			R.Thigh.Inferior			R.Patella			L.Thigh.Superior			L.Thigh.Lateral			L.Thigh.Inferior			L.Patella			L.Shank.Superior			L.Shank.Lateral			L.Shank.Inferior			R.Shank.Superior			R.Shank.Lateral			R.Shank.Inferior			R.Heel			R.Midfoot.Superior			R.Midfoot.Lateral			R.Toe			L.Heel			L.Midfoot.Lateral			L.Midfoot.Superior			L.Toe			L.Elbow			L.Wrist			R.Elbow			R.Wrist			
		X1	Y1	Z1	X2	Y2	Z2	X3	Y3	Z3	X4	Y4	Z4	X5	Y5	Z5	X6	Y6	Z6	X7	Y7	Z7	X8	Y8	Z8	X9	Y9	Z9	X10	Y10	Z10	X11	Y11	Z11	X12	Y12	Z12	X13	Y13	Z13	X14	Y14	Z14	X15	Y15	Z15	X16	Y16	Z16	X17	Y17	Z17	X18	Y18	Z18	X19	Y19	Z19	X20	Y20	Z20	X21	Y21	Z21	X22	Y22	Z22	X23	Y23	Z23	X24	Y24	Z24	X25	Y25	Z25	X26	Y26	Z26	X27	Y27	Z27	X28	Y28	Z28	X29	Y29	Z29	X30	Y30	Z30	X31	Y31	Z31	X32	Y32	Z32	X33	Y33	Z33	

1	57.830000000000	781.154803981921	1013.087674657230	401.794901469015	957.061065408538	1444.466961805597	231.434980969603	1058.557003971389	1373.013389723792	391.680953717452	971.474177025964	1439.622719696531	565.840149344035	935.859366738185	1501.161055750546	386.049167077905	1006.242033371339	950.308572074912	522.094004153157	1002.151601327294	968.716347994296	247.038378273946	1089.153949172142	778.950564209784	491.356822175315	1049.401690559158	657.883694509345	563.670045609521	1138.946816178738	618.167005089241	483.920989489749	1157.294807083095	503.516103062080	506.004826516046	1038.541027269691	748.816096239656	279.893242102993	941.284456305789	636.616117306253	227.141522678267	1020.646962780511	556.095189804362	292.262113711942	1016.465722241003	487.592816075457	306.422068886542	990.040698573892	417.065259570575	300.325295207714	899.154912239349	302.257389954720	254.463912700255	946.899138335547	193.209037834325	329.972359501883	1079.088921450145	430.258840301253	513.225486680658	955.603211474858	393.441336643778	571.472314729284	940.164456191280	284.150006872947	523.470045312013	739.589781081190	227.146966471270	490.695792491683	904.187550427557	161.458565462167	535.556535734323	793.668645826565	164.562376074698	565.383941897129	964.467148723840	47.042933874817	564.921050957132	817.350697635431	39.160388883565	379.424386053452	888.867814117327	35.137388676685	296.780378747194	973.193272876180	96.060388308958	320.932758180382	1101.183740881623	41.488147973803	289.129165897546	992.035315561337	1098.381296953504	93.866879039534	1190.407407524057	927.995074997232	98.030818363101	926.832678557282	1085.397324018727	664.425419409762	1004.357763767799	835.171867531341	658.541081261477	
2	57.842571428571	780.019061686122	1013.514925284800	400.420902772451	958.867002693063	1445.031022503764	231.004714984946	1058.422494363025	1373.060758358188	392.134103932010	969.801596910852	1439.689883108885	565.413766339656	935.956419370283	1501.488483088871	385.572967653867	1004.367364604329	951.189570660861	522.098909351153	1001.684233072085	968.821770596974	247.082830581375	1089.254254491069	782.364193486189	491.222360408283	1051.974091510741	660.738127844281	563.765142011890	1141.582252399923	622.339653125639	483.592176801424	1162.534965022578	508.990198412563	506.050512099645	1035.334913895402	747.896999965093	280.780476190164	936.972206804250	636.775527645011	226.768472000610	1014.620509371326	555.368662714340	292.375732381827	1009.571169544062	487.163352503546	306.307502909045	983.102007427771	416.881298469427	300.130230794980	891.971059086483	302.379124639204	254.133452757171	939.173340516227	193.186760436450	329.748883418982	1087.435359863196	433.344017264746	513.347801956023	966.218154071675	390.688036929369	571.420509139230	956.299369911942	280.979729913690	523.494203009520	759.236314625125	214.401878392116	490.774520235685	926.368103851490	156.951510971884	535.301688278276	816.235473546786	154.657444895038	565.428615625046	992.020516080166	45.915834541868	564.666573961627	809.325205096898	39.288725968795	379.320421503990	880.905469528090	35.181428871392	296.714006414988	965.253023435526	96.061743120621	320.793180726048	1093.213550526371	41.375365193142	289.083847972573	998.106641559096	1100.465909482971	92.319008551249	1203.464494527806	940.123419541209	97.390359401507	916.201901665478	1087.369741230755	663.411444594302	977.983490084944	834.731680310941	662.070305691300	
3	57.855142857143	778.894574562645	1013.925001325523	399.079934854716	960.656647631826	1445.556729646406	230.604862259490	1058.300541428666	1373.076899864844	392.597715068328	968.171508240302	1439.739830382099	565.007802944012	936.066420277165	1501.785846325925	385.126570814377	1002.518865059222	952.023176564655	522.114873156962	1001.211894478174	968.901219626171	247.130965174948	1089.280789623438	785.642476001553	491.099885221539	1054.368644009432	663.463021795502	563.848496304702	1144.023638933305	626.335808518317	483.284984615137	1167.497774195646	514.323105009372	506.100605742717	1032.171153254249	746.979004041881	281.614640266279	932.691656055587	636.928126442329	226.395104082387	1008.659391602527	554.646031155834	292.459138325117	1002.749886381434	486.736687848017	306.175883107897	976.238242112169	416.699842422644	299.922173467799	884.856002294786	302.500002810259	253.802967389824	931.524439353198	193.164184877464	329.523733361438	1095.579787970059	436.319463451505	513.476160965105	976.767763761128	387.788552633715	571.445705141872	972.403864083313	277.729792386676	523.582708643184	779.009357056903	201.512416260900	491.000411183419	948.594904911342	152.429071793837	535.125532766317	838.948371079470	144.705577832513	565.613409790235	1019.649545402811	44.900963525144	564.484240542492	801.379010543496	39.418837661558	379.212696458649	873.015147942111	35.223124495838	296.647682128122	957.384734243831	96.063789703914	320.654071983613	1085.315183701843	41.263252166717	289.038920112659	1004.068924207888	1102.495137699851	90.826811317102	1216.234076340731	952.151796417619	96.802745023084	905.598689345388	1089.419655049695	662.495672604197	952.091871906082	834.565801875048	665.514018214295	
4	57.867714285714	777.799898397889	1014.289996905860	397.809182612316	962.408189614514	1445.998842669538	230.269967714017	1058.202696996474	1373.026132933987	393.086224183023	966.629946549006	1439.754338661692	564.648059219938	936.200345040714	1502.017718430440	384.739973500362	1000.729963498166	952.752780613301	522.158161806877	1000.725669523707	968.921866840358	247.193797350483	1089.138307655386	788.603650979730	491.015416278500	1056.364042909623	665.901913693814	563.938797892210	1146.030869200842	629.931532752654	483.038293081240	1171.863104873477	519.342710855474	506.166599722650	1029.070765982437	746.054633524853	282.350738228741	928.451736689968	637.066245022627	226.022758017639	1002.798086089857	553.927580348928	292.487354955717	996.042249011321	486.310814170745	306.010798886086	969.486336684766	416.521955198617	299.689541087040	877.836910815572	302.619934897068	253.473767673961	923.990744972234	193.140861291666	329.295685096334	1103.290768979892	439.075324659389	513.633356394522	987.195145887080	384.618993745730	571.635348984053	988.461419701030	274.376647729925	523.801379640066	799.118227753109	188.413610908874	491.499051287186	970.955250285646	147.959845893841	535.108285854465	862.011977177548	134.739564359832	566.054556169116	1047.441944160788	44.209518605698	564.433433191555	793.551922877387	39.550295914907	379.100079991115	865.228668118339	35.257860375808	296.584265549639	949.622603380432	96.066383595855	320.516187090047	1077.521963482510	41.152739283577	288.994998171255	1009.821959818096	1104.411991151174	89.447513497363	1228.435468731273	963.970291862850	96.330026633541	895.066871612690	1091.630050992243	661.764493102510	927.140104459976	834.925490232358	668.792282646804	
5	57.880285714286	776.751968817375	1014.584519436349	396.639367564972	964.102891816183	1446.317684731570	230.029109812861	1058.138320104083	1372.877727824166	393.613131855293	965.215524942103	1439.719149740381	564.357307122809	936.367223173644	1502.153524380690	384.437723073832	999.029113676446	953.328336416869	522.244889446799	1000.215986155794	968.854818522024	247.282908682191	1088.738730939871	791.079944068735	490.994843298075	1057.755705020320	667.912763695421	564.059534229954	1147.387904648734	632.924714208157	482.892998882167	1175.355920851269	523.899098576699	506.259055166076	1026.040931420715	745.113270653377	282.952336398885	924.244139932997	637.184589596881	225.651768211845	997.045174058450	553.211630203987	292.440712744573	989.460078753939	485.882620155847	305.797937281023	962.852272134649	416.348156827917	299.423426145542	870.910431589285	302.739244636956	253.147267273002	916.579672293648	193.116857599489	329.063975367592	1110.373813073698	441.524460756804	513.841923311438	997.477004368236	381.084051733530	572.069512507420	1004.489181667405	270.924201606258	524.204184890491	819.807614047654	175.070057416317	492.371536885467	993.572828714917	143.637517102653	535.312116090886	885.661157967772	124.815304993351	566.839412712707	1075.517367559332	44.070183057225	564.556146608554	785.849832914742	39.682509770065	378.983345617159	857.548209569807	35.283325281126	296.525737176085	941.970203404807	96.069086700068	320.380267360304	1069.836558665166	41.044590659556	288.952552597971	1015.297256082576	1106.171128752260	88.226289602745	1239.856682389172	975.495609414904	96.026002423859	884.637636596483	1094.078366854020	661.283175361633	903.462461278977	835.999279386914	671.845796228321	
6	57.892857142857	775.767244412883	1014.786611447980	395.594291867767	965.723408838594	1446.482460941402	229.903668106111	1058.113436473665	1372.609224886382	394.189024540615	963.957794217378	1439.625216509031	564.153932278455	936.572300167444	1502.170059250233	384.236955013137	997.440505750927	953.709980175546	522.389322828512	999.674671877641	968.677715613929	247.410004281537	1088.010964775421	792.928343287946	491.062660271212	1058.374546284925	669.378729396540	564.239464158927	1147.922145593176	635.149236932465	482.889410118388	1177.766989666437	527.869959593873	506.387606415909	1023.079057071420	744.143512618030	283.396059070456	920.051275791827	637.279880464948	225.283500312596	991.391115417333	552.495446296672	292.308632333516	982.996107271883	485.448636337232	305.527320155004	956.320623788886	416.178530355067	299.119230253620	864.053444505599	302.858525758631	252.825728321447	909.277960513316	193.092680856576	328.828813991875	1116.676761946314	443.607132460799	514.123203624056	1007.602879306230	377.136306441996	572.810347230519	1020.501567778059	267.413259862482	524.826231110678	841.288907516924	161.512831529234	493.676991365854	1016.546952219498	139.582921817659	535.774217907658	910.084902283803	115.029709477292	568.011744853614	1103.953610107052	44.706101272091	564.871319478448	778.255748849260	39.814167863383	378.865670462970	849.957604867929	35.299455880034	296.473289012734	934.411547434300	96.071079616904	320.247290727155	1062.242292831059	40.939611981829	288.911985716564	1020.454649588590	1107.740307617824	87.194079296045	1250.355714012589	986.656444557618	95.931656341627	874.349069714250	1096.821379892789	661.088384776088	881.278339903370	837.888800085986	674.637133699365	
